<svg width="128" height="128" viewBox="0 0 128 128" fill="none" xmlns="http://www.w3.org/2000/svg">
<g clip-path="url(#clip0_1_73)">
<rect width="128" height="128" rx="32" fill="white"/>
<rect width="128" height="128" rx="32" fill="url(#paint0_linear_1_73)"/>
<g clip-path="url(#clip1_1_73)">
<path d="M90.7248 50.125H70.1692L77.7573 27.3086C78.4698 24.6367 76.4214 22 73.6248 22H47.9748C45.8373 22 44.0204 23.5645 43.7354 25.6562L38.0354 67.8437C37.697 70.375 39.692 72.625 42.2748 72.625H63.4183L55.2067 106.814C54.5654 109.486 56.6317 112 59.357 112C60.8533 112 62.2783 111.227 63.062 109.891L94.412 56.4531C96.0686 53.6582 94.0201 50.125 90.7248 50.125Z" fill="#32D583"/>
</g>
</g>
<rect x="2.5" y="2.5" width="123" height="123" rx="29.5" stroke="#12B76A" stroke-width="5"/>
<defs>
<linearGradient id="paint0_linear_1_73" x1="64" y1="0" x2="64" y2="128" gradientUnits="userSpaceOnUse">
<stop stop-color="#ECFDF3" stop-opacity="0.05"/>
<stop offset="1" stop-color="#6CE9A6" stop-opacity="0.2"/>
</linearGradient>
<clipPath id="clip0_1_73">
<rect width="128" height="128" rx="32" fill="white"/>
</clipPath>
<clipPath id="clip1_1_73">
<rect width="57" height="90" fill="white" transform="translate(38 22)"/>
</clipPath>
</defs>
</svg>
